<svg height="512pt" viewBox="-17 0 512 512" width="512pt" xmlns="http://www.w3.org/2000/svg"><path d="m280.371094 148.644531h-48.761719l-22.96875 336.894531c-.976563 14.3125 10.367187 26.460938 24.714844 26.460938h45.269531c14.34375 0 25.691406-12.148438 24.714844-26.460938zm0 0" fill="#f9eac7"/><path d="m269.671875 173.417969h12.386719l-1.6875-24.773438h-48.761719l-22.972656 336.894531c-.921875 13.566407 9.261719 25.054688 22.539062 26.230469l22.019531-322.957031c.589844-8.664062 7.792969-15.394531 16.476563-15.394531zm0 0" fill="#f4dbb3"/><path d="m255.597656 0c-114.097656 0-208.316406 56.316406-222.679687 129.242188-1.992188 10.109374 6.589843 19.402343 17.761719 19.402343h409.835937c11.171875 0 19.75-9.292969 17.761719-19.402343-14.363282-72.925782-108.585938-129.242188-222.679688-129.242188zm0 0" fill="#ffa95f"/><path d="m124.148438 129.242188c12.390624-62.921876 84.46875-113.457032 177.238281-126.140626-14.746094-2.015624-30.140625-3.101562-45.789063-3.101562-114.097656 0-208.320312 56.316406-222.679687 129.242188-1.992188 10.105468 6.589843 19.402343 17.761719 19.402343h91.230468c-11.171875 0-19.75-9.292969-17.761718-19.402343zm0 0" fill="#ff8b5a"/><path d="m227.042969 489.417969-78.859375-200.386719-28.953125 9.15625 47.292969 194.851562c2.695312 11.101563 12.632812 18.921876 24.058593 18.929688l21.078125.015625c11.652344.007813 19.648438-11.722656 15.382813-22.566406zm0 0" fill="#f9eac7"/><path d="m466.460938 97.808594c-8.296876 4.507812-15.652344 9.546875-32.070313 9.546875-29.726563 0-29.726563-16.515625-59.457031-16.515625-29.730469 0-29.730469 16.515625-59.460938 16.515625-29.738281 0-29.738281-16.515625-59.476562-16.515625h-.480469c-29.738281 0-29.738281 16.515625-59.476563 16.515625-29.730468 0-29.730468-16.515625-59.460937-16.515625s-29.730469 16.515625-59.460937 16.515625c-16.578126 0-23.914063-5.136719-32.3125-9.679688-5.566407 10.078125-9.730469 20.601563-11.886719 31.566407-1.992188 10.105468 6.585937 19.402343 17.757812 19.402343h409.839844c11.171875 0 19.75-9.292969 17.761719-19.402343-2.148438-10.914063-6.289063-21.394532-11.816406-31.433594zm0 0" fill="#ffc269"/><path d="m124.148438 129.242188c2.644531-13.425782 8.023437-26.289063 15.710937-38.335938-1.113281-.054688-2.074219-.066406-3.28125-.066406-29.730469 0-29.730469 16.515625-59.457031 16.515625-16.578125 0-23.917969-5.136719-32.316406-9.679688-5.566407 10.078125-9.726563 20.601563-11.886719 31.566407-1.992188 10.105468 6.589843 19.402343 17.761719 19.402343h91.230468c-11.171875 0-19.75-9.292969-17.761718-19.402343zm0 0" fill="#ffa95f"/><path d="m153.039062 305.40625 1.414063-.449219-6.269531-15.925781-28.953125 9.15625 47.292969 194.851562c2.429687 10.007813 10.78125 17.351563 20.765624 18.707032l-45.324218-186.695313c-2.046875-8.441406 2.789062-17.027343 11.074218-19.644531zm0 0" fill="#f4dbb3"/><path d="m107.4375 206.472656c-67.167969 21.226563-112.15625 71.914063-107.042969 117.519532.710938 6.316406 7.488281 10.195312 14.066407 8.117187l241.273437-76.257813c6.574219-2.082031 9.898437-9.148437 6.84375-14.726562-22.023437-40.261719-87.972656-55.882812-155.140625-34.652344zm0 0" fill="#e2a975"/><path d="m54.101562 307.015625c-4.410156-39.351563 28.597657-82.507813 80.851563-107.238281-9.058594 1.558594-18.300781 3.78125-27.515625 6.695312-67.167969 21.230469-112.15625 71.914063-107.042969 117.519532.710938 6.320312 7.488281 10.195312 14.066407 8.117187l53.707031-16.976563c-6.574219 2.078126-13.355469-1.796874-14.066407-8.117187zm0 0" fill="#d19a6e"/><path d="m249.773438 224.816406c-4.046876 4.199219-7.4375 8.53125-17.101563 11.585938-17.503906 5.53125-20.578125-4.191406-38.078125 1.339844-17.503906 5.535156-14.429688 15.257812-31.929688 20.789062-17.507812 5.53125-20.582031-4.191406-38.089843 1.34375l-.28125.089844c-17.507813 5.53125-14.4375 15.257812-31.941407 20.789062-17.503906 5.53125-20.574218-4.191406-38.078124 1.34375-17.503907 5.53125-14.429688 15.253906-31.929688 20.785156-9.761719 3.085938-15.035156 1.425782-20.824219.316407-1.402343 6.96875-1.894531 13.9375-1.125 20.792969.707031 6.320312 7.488281 10.195312 14.066407 8.117187l241.269531-76.257813c6.578125-2.078124 9.898437-9.144531 6.847656-14.722656-3.296875-6.03125-7.683594-11.433594-12.804687-16.3125zm0 0" fill="#ecbd83"/><path d="m54.101562 307.015625c-.941406-8.398437-.183593-16.964844 2.101563-25.488281-.664063.175781-1.21875.34375-1.929687.566406-17.5 5.53125-14.429688 15.253906-31.929688 20.789062-9.757812 3.082032-15.035156 1.425782-20.824219.3125-1.402343 6.96875-1.894531 13.941407-1.125 20.796876.707031 6.320312 7.488281 10.195312 14.066407 8.117187l53.707031-16.976563c-6.574219 2.078126-13.355469-1.796874-14.066407-8.117187zm0 0" fill="#e2a975"/></svg>